Coordinates
version=1
nRows=29
nColumns=24
inDegrees=yes

Units are S.I. units (second, meters, Newtons, ...)
Angles are in degrees.

endheader
time	pelvis_tilt	pelvis_list	pelvis_rotation	pelvis_tx	pelvis_ty	pelvis_tz	hip_flexion_r	hip_adduction_r	hip_rotation_r	knee_angle_r	ankle_angle_r	subtalar_angle_r	mtp_angle_r	hip_flexion_l	hip_adduction_l	hip_rotation_l	knee_angle_l	ankle_angle_l	subtalar_angle_l	mtp_angle_l	lumbar_extension	lumbar_bending	lumbar_rotation
      2.12000000	      5.81986096	     -6.12294458	     -4.03698820	     -0.73541071	      0.99455457	      0.01931493	    -22.95937980	      6.18102630	     -2.58605249	     -1.72570693	     15.72428888	      6.68313483	      4.30327929	     15.70786035	     -8.09663903	    -16.36710346	     -0.86633291	      1.03047709	     11.01618173	     18.96270918	    -18.48997532	      7.54926637	      7.51018197
      2.12500000	      5.81700279	     -6.05261420	     -4.06158691	     -0.72996557	      0.99378833	      0.01872649	    -23.22551986	      6.01803747	     -2.53225563	     -1.84823866	     15.81497972	      6.71723112	      4.61752473	     15.63534425	     -7.97642721	    -16.25135479	     -0.96481744	      0.61396460	     10.47557819	     19.11305595	    -18.44594040	      7.43104690	      7.47424928
      2.13000000	      5.80213273	     -5.97636596	     -4.15964262	     -0.72453391	      0.99308716	      0.01822553	    -23.46774200	      5.81946840	     -2.36256729	     -1.98537366	     15.93304510	      6.74052047	      4.74208313	     15.55775805	     -7.87559341	    -16.20582002	     -1.10644636	      0.16124972	      9.94147584	     19.13516872	    -18.39972285	      7.28615533	      7.54857347
      2.13500000	      5.77146412	     -5.89574029	     -4.18687652	     -0.71914034	      0.99238710	      0.01762106	    -23.67264341	      5.64513788	     -2.25573664	     -2.14594747	     15.87871965	      6.70010302	      6.20722321	     15.51347578	     -7.75202839	    -16.00106190	     -1.25482770	     -0.64513758	      9.11906448	     20.91438748	    -18.33613402	      7.15589486	      7.50665221
      2.14000000	      5.77844164	     -5.75573526	     -4.26118529	     -0.71367952	      0.99183096	      0.01707365	    -23.91591011	      5.39005447	     -2.11820603	     -2.30798710	     15.96435276	      6.66383567	      6.30183681	     15.40467634	     -7.57898738	    -15.90878666	     -1.43827346	     -1.25814861	      8.46850888	     20.85601358	    -18.30830502	      6.94193359	      7.52433402
      2.14500000	      5.77341375	     -5.61144788	     -4.31107886	     -0.70826256	      0.99133187	      0.01648127	    -24.11904324	      5.14069749	     -2.00895217	     -2.51102899	     16.02373944	      6.64816662	      6.46821998	     15.31578788	     -7.39727978	    -15.74474882	     -1.63817726	     -1.97298102	      7.71363450	     20.90158656	    -18.27210977	      6.73071335	      7.49861578
      2.15000000	      5.73206862	     -5.46201291	     -4.31758144	     -0.70288004	      0.99084946	      0.01581914	    -24.25586953	      4.90858864	     -1.95323967	     -2.74634041	     15.90006452	      6.57454926	      8.21781579	     15.27408393	     -7.20218518	    -15.48720086	     -1.82531739	     -3.04921557	      6.74669647	     23.13936977	    -18.19835879	      6.52750385	      7.43076057
      2.15500000	      5.75679840	     -5.27170787	     -4.37487717	     -0.69748929	      0.99057437	      0.01522232	    -24.45542382	      4.61056854	     -1.81442911	     -2.99287458	     15.90548182	      6.47048623	      8.34896587	     15.14046916	     -6.97757772	    -15.36046572	     -2.04054524	     -3.81796152	      6.02782020	     23.07875262	    -18.20501740	      6.25746065	      7.39259726
      2.16000000	      5.70745202	     -5.06867890	     -4.37337032	     -0.69212312	      0.99027657	      0.01452673	    -24.54498411	      4.33113169	     -1.77997509	     -3.27649835	     15.78093202	      6.39944709	      9.94839620	     15.10435426	     -6.72993673	    -15.11287758	     -2.25481320	     -4.83275491	      5.12228339	     24.54294009	    -18.12529294	      5.99631738	      7.31540833
      2.16500000	      5.72079844	     -4.82976056	     -4.40660378	     -0.68674418	      0.99018557	      0.01389200	    -24.69496964	      4.00051951	     -1.67404635	     -3.57013676	     15.72019856	      6.24777019	     10.06708252	     14.98643844	     -6.45668143	    -14.99489225	     -2.49428074	     -5.59720170	      4.47256413	     24.46683920	    -18.11896885	      5.67512487	      7.27073179
      2.17000000	      5.68309452	     -4.59740573	     -4.38465077	     -0.68142362	      0.99011645	      0.01315069	    -24.74882550	      3.70336479	     -1.67571251	     -3.91885908	     15.51938108	      6.13304312	     11.84810830	     14.94465588	     -6.18192784	    -14.76563525	     -2.74339350	     -6.53898293	      3.67523902	     25.72798324	    -18.06298752	      5.38403319	      7.17172447
      2.17500000	      5.69618661	     -4.34072300	     -4.37168846	     -0.67608905	      0.99022952	      0.01243404	    -24.85197883	      3.37841106	     -1.64028557	     -4.27658873	     15.39489443	      5.97488172	     12.01724680	     14.83816357	     -5.88724076	    -14.61761558	     -3.01088613	     -7.24193287	      3.11244159	     25.65038728	    -18.06530202	      5.05491245	      7.10018713
      2.18000000	      5.65569319	     -4.07063687	     -4.32702933	     -0.67077180	      0.99035197	      0.01165347	    -24.85715951	      3.05657659	     -1.69152478	     -4.69258911	     15.13240400	      5.85364343	     13.98413638	     14.81213921	     -5.57814013	    -14.44522222	     -3.31532401	     -7.96277272	      2.49435939	     26.44145325	    -18.01101552	      4.72553504	      6.97366632
      2.18500000	      5.65485145	     -3.78712957	     -4.30201149	     -0.66546368	      0.99067297	      0.01089423	    -24.89401980	      2.71328905	     -1.68516719	     -5.12096743	     14.93828138	      5.68749512	     14.12167520	     14.72849553	     -5.26077444	    -14.34184385	     -3.62335342	     -8.51729206	      2.02956168	     26.34163826	    -18.00805900	      4.37287176	      6.88389805
      2.19000000	      5.63259548	     -3.50586981	     -4.22553112	     -0.66017105	      0.99103416	      0.01005072	    -24.87416264	      2.39397245	     -1.79214160	     -5.59673593	     14.54343986	      5.51796548	     16.51741571	     14.68715114	     -4.93990141	    -14.19745010	     -3.95982219	     -9.04106055	      1.60911544	     26.67799502	    -17.98396393	      4.03856735	      6.75748884
      2.19500000	      5.61602542	     -3.22427293	     -4.16050512	     -0.65489139	      0.99153058	      0.00922463	    -24.83555498	      2.07084402	     -1.86420903	     -6.12261007	     14.31819062	      5.41195682	     16.64129900	     14.63273058	     -4.62286052	    -14.09050534	     -4.30812081	     -9.42058123	      1.24062741	     26.57639743	    -17.97248475	      3.69908960	      6.63703085
      2.20000000	      5.57657513	     -2.95169201	     -4.00945482	     -0.64961916	      0.99204757	      0.00826955	    -24.74069439	      1.79089169	     -2.11224807	     -6.69684532	     13.87448637	      5.30581507	     18.73383701	     14.62234322	     -4.30138077	    -13.89025053	     -4.68197813	     -9.68634584	      1.02276614	     26.39286828	    -17.93781347	      3.39521299	      6.45870520
      2.20500000	      5.58308821	     -2.66349003	     -3.96098801	     -0.64436607	      0.99276651	      0.00741177	    -24.66272840	      1.44662614	     -2.20011032	     -7.31936632	     13.59711467	      5.22273619	     18.94760857	     14.52207200	     -3.97496483	    -13.82651984	     -5.02419285	     -9.89850923	      0.68609277	     26.29558637	    -17.96424354	      3.04622543	      6.40128420
      2.21000000	      5.58240651	     -2.39380125	     -3.83115587	     -0.63909788	      0.99352526	      0.00646181	    -24.55800847	      1.15441760	     -2.42104498	     -7.96287177	     13.00924301	      5.03056162	     21.74166567	     14.44458113	     -3.65756099	    -13.70122792	     -5.40053568	     -9.88650757	      0.61908229	     25.76605344	    -17.98408085	      2.73987747	      6.24774734
      2.21500000	      5.55617834	     -2.13694737	     -3.72426461	     -0.63387455	      0.99435364	      0.00548170	    -24.37080188	      0.85587062	     -2.64518922	     -8.71819566	     12.67464913	      5.08025773	     21.95200091	     14.36867390	     -3.34643630	    -13.55621491	     -5.72965609	     -9.96250051	      0.37857530	     25.67518451	    -17.98527405	      2.45055559	      6.14549881
      2.22000000	      5.57038439	     -1.87740452	     -3.60568652	     -0.62861996	      0.99530722	      0.00450034	    -24.22024258	      0.55905227	     -2.86893213	     -9.45848837	     12.03085992	      4.88251491	     24.53003547	     14.23120701	     -3.02697628	    -13.42297335	     -6.05314320	     -9.80581993	      0.33585797	     24.89340396	    -18.03026272	      2.15723668	      6.02872841
      2.22500000	      5.53747886	     -1.64710022	     -3.47747975	     -0.62340798	      0.99626120	      0.00346337	    -23.95365726	      0.28093218	     -3.17933513	    -10.33607538	     11.63062178	      5.03444047	     24.78718590	     14.13375063	     -2.73146771	    -13.26054062	     -6.35150422	     -9.72109557	      0.24880941	     24.81969375	    -18.03312316	      1.90858911	      5.92275218
      2.23000000	      5.56618173	     -1.41078714	     -3.36332648	     -0.61817289	      0.99736539	      0.00243534	    -23.75160301	     -0.00969677	     -3.42262555	    -11.18111076	     10.90092927	      4.83512413	     27.42606550	     13.92832946	     -2.41803626	    -13.09980041	     -6.59727941	     -9.46558674	      0.22557257	     23.88763701	    -18.10389572	      1.64695538	      5.82600664
      2.23500000	      5.53742784	     -1.20707541	     -3.24373612	     -0.61297294	      0.99843419	      0.00137640	    -23.41487672	     -0.28204760	     -3.75107613	    -12.18251836	     10.43687707	      5.01380521	     27.66904746	     13.77547652	     -2.13749611	    -12.93500712	     -6.82264340	     -9.28928410	      0.21587978	     23.82950686	    -18.11677412	      1.43136463	      5.73734325
      2.24000000	      5.55441707	     -0.99516016	     -3.11799922	     -0.60775087	      0.99961853	      0.00028588	    -23.13011284	     -0.56092708	     -4.03530717	    -13.14422137	      9.63500994	      4.83355555	     30.25296168	     13.52969204	     -1.82747597	    -12.71242870	     -6.98052802	     -8.98245377	      0.18197748	     22.82691556	    -18.17894392	      1.20982221	      5.64022142
      2.24500000	      5.53307637	     -0.80467458	     -3.04610220	     -0.60254247	      1.00079364	     -0.00075358	    -22.73187753	     -0.85704521	     -4.31047492	    -14.24789301	      9.08604469	      4.98701930	     30.39779103	     13.29602013	     -1.55243888	    -12.60065325	     -7.09638798	     -8.75225099	      0.21472130	     22.80258014	    -18.20351236	      1.00520163	      5.59202804
      2.25000000	      5.53493373	     -0.64795019	     -2.94423341	     -0.59740003	      1.00201580	     -0.00184212	    -22.33195197	     -1.11234574	     -4.59850875	    -15.36568529	      8.24519359	      4.87349685	     33.03686449	     13.02076160	     -1.29518981	    -12.39005070	     -7.18017813	     -8.40869762	      0.24130504	     21.72117283	    -18.25990648	      0.84557358	      5.54823560
      2.25500000	      5.51771322	     -0.49028305	     -2.85294345	     -0.59225205	      1.00322538	     -0.00295137	    -21.86263783	     -1.39024600	     -4.90966081	    -16.59087042	      7.64045516	      5.01302457	     33.20093934	     12.73165129	     -1.03101890	    -12.20390775	     -7.19219196	     -8.21189406	      0.21768944	     21.66439375	    -18.29350171	      0.69062187	      5.50024054
      2.26000000	      5.51070911	     -0.35217953	     -2.72668270	     -0.58710766	      1.00444673	     -0.00411590	    -21.40089066	     -1.63717080	     -5.21815857	    -17.79177962	      6.75957821	      4.88398365	     35.11330107	     12.40538644	     -0.77046493	    -11.93501773	     -7.15654346	     -7.91260171	      0.20375612	     20.73204541	    -18.33792995	      0.56970424	      5.41648577
